<svg version="1.1" xmlns="http://www.w3.org/2000/svg" xmlns:xlink="http://www.w3.org/1999/xlink" viewBox="0 0 435 435" width="512" height="512">
    <defs>
        <path d="M43.41 86.71L28.22 109.49C25.23 115.7 23.37 119.59 22.63 121.14C16.24 134.44 11.16 148.33 7.46 162.61C6.8 165.16 8.57 158.32 7.46 162.61C5.27 171.07 3.77 179.69 2.98 188.38C2.71 191.28 2.05 198.53 1 210.13C1 216.94 1 221.2 1 222.9C1 236.28 2.51 249.62 5.5 262.66C5.83 264.1 6.65 267.68 7.96 273.42C11.02 282.6 12.94 288.34 13.7 290.63C16.62 299.39 20.38 307.84 24.94 315.86C26.14 317.97 29.13 323.23 33.91 331.65C38.73 338.33 41.74 342.5 42.94 344.17C49.99 353.94 57.91 363.05 66.61 371.39C69.43 374.1 68.81 373.5 72.63 377.16C78.03 382.34 83.91 386.99 90.18 391.06C94.5 393.86 99.01 396.79 103.58 399.75C109.02 403.29 114.76 406.35 120.73 408.91C123.67 410.17 131.01 413.32 142.77 418.35C154.76 422.07 162.25 424.4 165.25 425.33C174.71 428.27 184.46 430.19 194.33 431.05C197.94 431.37 194.72 431.09 198.53 431.42C207.75 432.24 217.03 432.27 226.27 431.53C229.23 431.29 236.63 430.7 248.47 429.75C257.74 427.79 263.54 426.56 265.86 426.07C276.19 423.88 286.33 420.88 296.19 417.09C298.6 416.16 304.64 413.84 314.29 410.13C326.04 402.53 333.38 397.78 336.32 395.88C343.14 391.46 349.56 386.46 355.52 380.93C359.05 377.66 361.5 375.37 365.24 371.91C370.51 367.01 375.4 361.73 379.88 356.1C382.96 352.22 383.89 351.05 386.58 347.68C392.39 340.38 397.6 332.62 402.18 324.49C403.54 322.07 406.94 316.02 412.39 306.33C415.51 298.53 417.46 293.65 418.24 291.7C421.93 282.49 424.76 272.95 426.71 263.22C427.16 260.95 428.3 255.28 430.11 246.2C430.76 237.07 431.16 231.36 431.32 229.07C432.2 216.46 432.15 203.8 431.16 191.19C430.95 188.52 431.32 193.24 430.99 189.01C430.41 181.59 429.04 174.25 426.9 167.12C426.06 164.33 423.97 157.36 420.62 146.2C416.16 135.26 413.37 128.43 412.25 125.69C409.39 118.7 406.04 111.92 402.21 105.41C400.83 103.06 402.94 106.65 401.68 104.51C397.44 97.29 392.68 90.39 387.45 83.85C385.47 81.38 391.52 88.94 390.57 87.76C381.93 76.95 372.47 66.81 362.29 57.43C361.29 56.51 358.79 54.21 354.8 50.53L332.01 34.18C324.14 29.63 319.21 26.78 317.24 25.64C308.12 20.37 298.52 15.98 288.57 12.53C285.54 11.48 291.56 13.57 288.57 12.53C278.5 9.03 268.18 6.28 257.7 4.3C255.37 3.86 249.55 2.76 240.24 1L202.27 1C197.16 1.45 193.97 1.73 192.69 1.85C178.03 3.14 163.58 6.19 149.64 10.92C147.96 11.49 143.78 12.91 137.08 15.19C125.78 20.6 118.72 23.99 115.9 25.34C109.78 28.27 103.96 31.79 98.52 35.85C95.9 37.81 89.34 42.7 78.85 50.53L56.7 71.52L43.41 86.71Z" id="a2nlAAgNC7"></path>
        <path d="M316.62 109.39L296.37 114.46L267.25 123.32L241.94 131.54L211.56 144.2L182.44 159.39L155.86 175.85L186.24 168.25L214.72 161.92L252.06 154.96L289.41 150.53L324.85 146.73L363.46 146.73C365.55 150.19 366.86 152.35 367.39 153.21C371.92 160.67 375.36 168.73 377.62 177.16C378.34 179.81 376.94 174.62 377.62 177.16C379.99 185.97 381.58 194.97 382.39 204.06C382.65 207.03 382.15 201.33 382.39 204.06C383.27 213.91 383.01 223.83 381.64 233.62C381.24 236.47 380.24 243.58 378.65 254.96C377.51 260.16 376.8 263.4 376.52 264.7C374.99 271.69 372.64 278.47 369.51 284.9C368.7 286.56 366.69 290.72 363.46 297.37C358.64 304.79 355.63 309.43 354.43 311.29C350.33 317.61 345.69 323.56 340.56 329.07C337.04 332.86 339.42 330.29 337.21 332.67C327.74 342.85 317.02 351.79 305.31 359.29C302.51 361.08 308.69 357.13 305.12 359.41C295.94 365.29 286.13 370.13 275.88 373.84C271.62 375.38 278.46 372.91 275.24 374.07C261.52 379.04 247.28 382.4 232.78 384.09C229.55 384.47 237.29 383.56 232.96 384.07C222.11 385.33 211.14 385.22 200.32 383.74C198.19 383.44 192.86 382.71 184.34 381.54C174.99 379.26 169.14 377.83 166.8 377.26C159.53 375.48 152.51 372.83 145.88 369.37C143.5 368.12 137.54 365.01 128.01 360.03L114.72 348L137.51 343.57L163.46 337.24L193.84 327.11L225.48 312.56L254.59 297.37L284.34 280.91L246.37 288.51L203.33 297.37L163.46 303.7L120.42 308.13L86.87 308.13C83.33 305.04 81.12 303.12 80.24 302.35C71.69 294.9 64.92 285.64 60.42 275.24C59.76 273.71 63.34 282 62.37 279.74C58.88 271.67 56.01 263.35 53.79 254.84C52.94 251.58 54.38 257.09 53.69 254.46C50.93 243.87 49.53 232.97 49.53 222.02C49.53 220.42 49.53 216.42 49.53 210.03C49.7 208.43 49.8 207.43 49.84 207.03C51.32 192.6 54.11 178.34 58.19 164.42C58.38 163.75 58.87 162.07 59.66 159.39C61.44 155.27 62.55 152.69 63 151.66C68.76 138.32 76.38 125.85 85.63 114.64C86.55 113.52 88.87 110.72 92.57 106.23C98.67 100.31 102.49 96.62 104.02 95.14C109.87 89.46 116.25 84.35 123.06 79.86C126.58 77.54 132.77 73.46 137.76 70.17C139.7 68.9 141.75 67.81 143.89 66.93C150.34 64.28 150.73 64.12 153.25 63.09C168.4 56.86 184.42 53.01 200.75 51.68C203.55 51.45 192.87 52.32 197.06 51.98C208.81 51.02 220.63 51.07 232.37 52.14C235.8 52.45 214.72 50.53 214.72 50.53C237.87 52.64 260.77 56.97 283.09 63.46C283.34 63.53 265.4 58.31 269.37 59.47C279.31 62.36 288.88 66.44 297.85 71.63C300.84 73.36 295.15 70.06 297.85 71.63C307.8 77.38 317.13 84.16 325.68 91.85C327.34 93.34 331.49 97.08 338.14 103.06L316.62 109.39Z" id="e6poZfmKjK"></path>
    </defs>
    <g>
        <g>
            <use xlink:href="#a2nlAAgNC7" opacity="1" fill="#3d46f2" fill-opacity="1"></use>
        </g>
        <g>
            <use xlink:href="#e6poZfmKjK" opacity="1" fill="#ffffff" fill-opacity="1"></use>
        </g>
    </g>
</svg>