<?xml version="1.0" encoding="UTF-8" standalone="no"?>
<!DOCTYPE svg PUBLIC "-//W3C//DTD SVG 1.1//EN" "http://www.w3.org/Graphics/SVG/1.1/DTD/svg11.dtd">
<svg version="1.1" xmlns="http://www.w3.org/2000/svg" xmlns:xlink="http://www.w3.org/1999/xlink" viewBox="101.27848101265832 87.59492898289147 434.94311343154925 435.06174343542034" width="600" height="600">
    <defs>
        <path d="M144.68 174.3L129.49 197.09C126.51 203.3 124.65 207.18 123.9 208.73C117.52 222.04 112.44 235.93 108.74 250.21C108.08 252.75 109.85 245.91 108.74 250.21C106.54 258.66 105.05 267.28 104.26 275.98C103.99 278.88 103.33 286.13 102.28 297.72C102.28 304.54 102.28 308.8 102.28 310.5C102.28 323.88 103.79 337.22 106.78 350.26C107.1 351.69 107.93 355.28 109.24 361.01C112.3 370.2 114.21 375.93 114.98 378.23C117.9 386.98 121.66 395.43 126.22 403.46C127.42 405.56 130.41 410.82 135.19 419.24C140.01 425.92 143.02 430.1 144.22 431.77C151.27 441.54 159.19 450.65 167.88 458.98C170.71 461.69 170.09 461.09 173.9 464.75C179.31 469.93 185.18 474.59 191.46 478.66C195.78 481.46 200.29 484.39 204.85 487.35C210.3 490.88 216.04 493.94 222 496.5C224.94 497.76 232.29 500.91 244.05 505.95C256.04 509.67 263.53 511.99 266.53 512.92C275.99 515.86 285.74 517.78 295.61 518.65C299.22 518.97 296 518.68 299.81 519.02C309.03 519.83 318.31 519.87 327.55 519.13C330.51 518.89 337.91 518.29 349.75 517.34C359.02 515.38 364.82 514.15 367.14 513.66C377.47 511.48 387.61 508.48 397.47 504.68C399.88 503.76 405.91 501.43 415.57 497.72C427.32 490.12 434.66 485.37 437.59 483.47C444.42 479.06 450.84 474.05 456.8 468.52C460.32 465.25 462.78 462.97 466.52 459.5C471.78 454.61 476.68 449.33 481.15 443.7C484.24 439.82 485.17 438.65 487.86 435.27C493.66 427.97 498.88 420.22 503.45 412.09C504.82 409.67 508.22 403.61 513.67 393.92C516.79 386.12 518.74 381.25 519.52 379.3C523.21 370.08 526.04 360.55 527.99 350.81C528.44 348.54 529.58 342.87 531.39 333.8C532.03 324.66 532.43 318.95 532.59 316.67C533.48 304.05 533.43 291.39 532.44 278.79C532.23 276.12 532.6 280.83 532.27 276.61C531.69 269.19 530.31 261.85 528.17 254.72C527.34 251.93 525.25 244.95 521.9 233.8C517.43 222.86 514.64 216.02 513.53 213.29C510.67 206.3 507.32 199.52 503.49 193.01C502.11 190.66 504.22 194.24 502.96 192.11C498.71 184.89 493.96 177.98 488.72 171.44C486.75 168.98 492.8 176.54 491.85 175.35C483.2 164.54 473.75 154.4 463.56 145.02C462.57 144.1 460.07 141.81 456.08 138.13L433.29 121.77C425.41 117.22 420.49 114.38 418.52 113.24C409.4 107.97 399.8 103.58 389.85 100.12C386.82 99.07 392.84 101.16 389.85 100.12C379.78 96.63 369.46 93.88 358.98 91.9C356.65 91.46 350.83 90.36 341.52 88.59L303.54 88.59C298.44 89.05 295.25 89.33 293.97 89.44C279.31 90.74 264.85 93.78 250.92 98.52C249.24 99.09 245.05 100.51 238.35 102.78C227.06 108.2 220 111.58 217.18 112.93C211.06 115.87 205.24 119.39 199.8 123.44C197.18 125.4 190.62 130.3 180.13 138.13L157.97 159.11L144.68 174.3Z" id="a2nlAAgNC7"></path>
        <path d="M417.9 196.99L397.65 202.05L368.53 210.91L343.22 219.14L312.84 231.8L283.72 246.99L257.14 263.44L287.52 255.85L316 249.52L353.34 242.56L390.68 238.13L426.13 234.33L464.73 234.33C466.83 237.78 468.14 239.94 468.67 240.8C473.19 248.26 476.64 256.33 478.9 264.76C479.61 267.41 478.22 262.22 478.9 264.76C481.27 273.57 482.86 282.57 483.67 291.66C483.93 294.62 483.43 288.93 483.67 291.66C484.55 301.51 484.29 311.43 482.92 321.22C482.52 324.06 481.52 331.18 479.92 342.56C478.79 347.75 478.08 351 477.79 352.3C476.27 359.28 473.92 366.06 470.79 372.49C469.98 374.15 467.96 378.31 464.73 384.96C459.92 392.39 456.91 397.03 455.7 398.88C451.61 405.2 446.96 411.15 441.84 416.67C438.31 420.45 440.7 417.89 438.49 420.26C429.02 430.44 418.3 439.39 406.59 446.88C403.79 448.68 409.97 444.72 406.4 447C397.22 452.88 387.41 457.72 377.15 461.43C372.9 462.97 379.73 460.5 376.52 461.66C362.8 466.63 348.55 469.99 334.06 471.68C330.83 472.06 338.57 471.16 334.24 471.66C323.39 472.93 312.42 472.82 301.6 471.33C299.47 471.04 294.14 470.31 285.62 469.14C276.26 466.85 270.42 465.42 268.08 464.85C260.81 463.08 253.79 460.43 247.16 456.96C244.78 455.71 238.82 452.6 229.29 447.62L216 435.59L238.78 431.16L264.73 424.84L295.11 414.71L326.76 400.15L355.87 384.96L385.62 368.51L347.65 376.1L304.61 384.96L264.73 391.29L221.7 395.72L188.15 395.72C184.61 392.64 182.4 390.71 181.51 389.94C172.97 382.5 166.2 373.23 161.7 362.83C161.04 361.31 164.62 369.59 163.65 367.34C160.16 359.27 157.29 350.94 155.07 342.44C154.22 339.17 155.66 344.68 154.97 342.05C152.21 331.46 150.81 320.56 150.81 309.62C150.81 308.02 150.81 304.02 150.81 297.62C150.97 296.02 151.08 295.02 151.12 294.62C152.6 280.2 155.39 265.93 159.47 252.01C159.66 251.34 160.15 249.67 160.94 246.99C162.72 242.86 163.83 240.29 164.28 239.25C170.04 225.91 177.66 213.45 186.91 202.24C187.83 201.12 190.15 198.31 193.85 193.82C199.95 187.91 203.77 184.21 205.29 182.73C211.15 177.06 217.53 171.94 224.34 167.46C227.86 165.13 234.05 161.05 239.04 157.77C240.97 156.49 243.03 155.4 245.17 154.52C251.62 151.88 252.01 151.72 254.52 150.68C269.68 144.46 285.7 140.61 302.03 139.27C304.83 139.04 294.15 139.92 298.34 139.57C310.09 138.61 321.9 138.66 333.65 139.73C337.08 140.04 316 138.13 316 138.13C339.15 140.23 362.05 144.56 384.37 151.05C384.62 151.13 366.68 145.91 370.64 147.06C380.59 149.95 390.15 154.04 399.12 159.22C402.12 160.95 396.42 157.66 399.12 159.22C409.08 164.97 418.41 171.75 426.96 179.44C428.62 180.94 432.77 184.68 439.42 190.66L417.9 196.99Z" id="e6poZfmKjK"></path>
    </defs>
    <g>
        <g>
            <use xlink:href="#a2nlAAgNC7" opacity="1" fill="#3d46f2" fill-opacity="1"></use>
        </g>
        <g>
            <use xlink:href="#e6poZfmKjK" opacity="1" fill="#ffffff" fill-opacity="1"></use>
        </g>
    </g>
</svg>