<svg version="1.1" xmlns="http://www.w3.org/2000/svg" xmlns:xlink="http://www.w3.org/1999/xlink" viewBox="0 0 435 435" width="512" height="512">
    <defs>
        <path d="M317.88 109.19L297.62 114.25L268.51 123.11L243.19 131.34L212.81 144L183.7 159.19L157.12 175.64L187.5 168.05L215.98 161.72L253.32 154.76L290.66 150.33L326.1 146.53L364.71 146.53C366.81 149.98 368.12 152.14 368.64 153C373.17 160.46 376.62 168.53 378.88 176.96C379.59 179.61 378.2 174.42 378.88 176.96C381.24 185.77 382.84 194.77 383.65 203.86C383.91 206.82 383.4 201.12 383.65 203.86C384.52 213.71 384.27 223.63 382.9 233.42C382.5 236.26 381.5 243.38 379.9 254.76C378.76 259.95 378.05 263.2 377.77 264.49C376.24 271.48 373.89 278.26 370.77 284.69C369.96 286.35 367.94 290.51 364.71 297.16C359.89 304.59 356.88 309.23 355.68 311.08C351.58 317.4 346.94 323.35 341.81 328.87C338.29 332.65 340.68 330.09 338.47 332.46C329 342.64 318.28 351.59 306.57 359.08C303.77 360.87 309.94 356.92 306.38 359.2C297.19 365.08 287.38 369.92 277.13 373.63C272.88 375.17 279.71 372.7 276.5 373.86C262.78 378.83 248.53 382.19 234.04 383.88C230.81 384.26 238.55 383.36 234.22 383.86C223.37 385.13 212.4 385.02 201.57 383.53C199.44 383.24 194.12 382.51 185.6 381.34C176.24 379.05 170.39 377.62 168.06 377.05C160.79 375.27 153.76 372.62 147.14 369.16C144.75 367.91 138.8 364.8 129.27 359.82L115.98 347.79L138.76 343.36L164.71 337.03L195.09 326.91L226.74 312.35L255.85 297.16L285.6 280.71L247.62 288.3L204.58 297.16L164.71 303.49L121.67 307.92L88.13 307.92C84.59 304.84 82.38 302.91 81.49 302.14C72.94 294.7 66.17 285.43 61.67 275.03C61.02 273.51 64.6 281.79 63.62 279.53C60.13 271.47 57.27 263.14 55.05 254.64C54.2 251.37 55.63 256.88 54.95 254.25C52.18 243.66 50.79 232.76 50.79 221.82C50.79 220.22 50.79 216.22 50.79 209.82C50.95 208.22 51.05 207.22 51.09 206.82C52.57 192.4 55.37 178.13 59.44 164.21C59.64 163.54 60.13 161.87 60.91 159.19C62.69 155.06 63.81 152.49 64.25 151.45C70.01 138.11 77.63 125.65 86.88 114.44C87.81 113.32 90.12 110.51 93.82 106.02C99.93 100.11 103.75 96.41 105.27 94.93C111.13 89.26 117.51 84.14 124.32 79.65C127.84 77.33 134.03 73.25 139.02 69.97C140.95 68.69 143.01 67.6 145.15 66.72C151.59 64.08 151.99 63.92 154.5 62.88C169.66 56.66 185.68 52.81 202.01 51.47C204.8 51.24 194.13 52.12 198.31 51.77C210.07 50.81 221.88 50.86 233.63 51.93C237.06 52.24 215.98 50.33 215.98 50.33C239.13 52.43 262.03 56.76 284.35 63.25C284.6 63.33 266.65 58.11 270.62 59.26C280.57 62.15 290.13 66.24 299.1 71.42C302.1 73.15 296.4 69.86 299.1 71.42C309.06 77.17 318.39 83.95 326.93 91.64C328.6 93.14 332.75 96.88 339.39 102.86L317.88 109.19Z" id="d1wSyzH2p4"></path>
        <path d="M43.41 86.71L28.22 109.49C25.23 115.7 23.37 119.59 22.63 121.14C16.24 134.44 11.16 148.33 7.46 162.61C6.8 165.16 8.57 158.32 7.46 162.61C5.27 171.07 3.77 179.69 2.98 188.38C2.71 191.28 2.05 198.53 1 210.13C1 216.94 1 221.2 1 222.9C1 236.28 2.51 249.62 5.5 262.66C5.83 264.1 6.65 267.68 7.96 273.42C11.02 282.6 12.94 288.34 13.7 290.63C16.62 299.39 20.38 307.84 24.94 315.86C26.14 317.97 29.13 323.23 33.91 331.65C38.73 338.33 41.74 342.5 42.94 344.17C49.99 353.94 57.91 363.05 66.61 371.39C69.43 374.1 68.81 373.5 72.63 377.16C78.03 382.34 83.91 386.99 90.18 391.06C94.5 393.86 99.01 396.79 103.58 399.75C109.02 403.29 114.76 406.35 120.73 408.91C123.67 410.17 131.01 413.32 142.77 418.35C154.76 422.07 162.25 424.4 165.25 425.33C174.71 428.27 184.46 430.19 194.33 431.05C197.94 431.37 194.72 431.09 198.53 431.42C207.75 432.24 217.03 432.27 226.27 431.53C229.23 431.29 236.63 430.7 248.47 429.75C257.74 427.79 263.54 426.56 265.86 426.07C276.19 423.88 286.33 420.88 296.19 417.09C298.6 416.16 304.64 413.84 314.29 410.13C326.04 402.53 333.38 397.78 336.32 395.88C343.14 391.46 349.56 386.46 355.52 380.93C359.05 377.66 361.5 375.37 365.24 371.91C370.51 367.01 375.4 361.73 379.88 356.1C382.96 352.22 383.89 351.05 386.58 347.68C392.39 340.38 397.6 332.62 402.18 324.49C403.54 322.07 406.94 316.02 412.39 306.33C415.51 298.53 417.46 293.65 418.24 291.7C421.93 282.49 424.76 272.95 426.71 263.22C427.16 260.95 428.3 255.28 430.11 246.2C430.76 237.07 431.16 231.36 431.32 229.07C432.2 216.46 432.15 203.8 431.16 191.19C430.95 188.52 431.32 193.24 430.99 189.01C430.41 181.59 429.04 174.25 426.9 167.12C426.06 164.33 423.97 157.36 420.62 146.2C416.16 135.26 413.37 128.43 412.25 125.69C409.39 118.7 406.04 111.92 402.21 105.41C400.83 103.06 402.94 106.65 401.68 104.51C397.44 97.29 392.68 90.39 387.45 83.85C385.47 81.38 391.52 88.94 390.57 87.76C381.93 76.95 372.47 66.81 362.29 57.43C361.29 56.51 358.79 54.21 354.8 50.53L332.01 34.18C324.14 29.63 319.21 26.78 317.24 25.64C308.12 20.37 298.52 15.98 288.57 12.53C285.54 11.48 291.56 13.57 288.57 12.53C278.5 9.03 268.18 6.28 257.7 4.3C255.37 3.86 249.55 2.76 240.24 1L202.27 1C197.16 1.45 193.97 1.73 192.69 1.85C178.03 3.14 163.58 6.19 149.64 10.92C147.96 11.49 143.78 12.91 137.08 15.19C125.78 20.6 118.72 23.99 115.9 25.34C109.78 28.27 103.96 31.79 98.52 35.85C95.9 37.81 89.34 42.7 78.85 50.53L56.7 71.52L43.41 86.71Z" id="h1Z9mk4NQ"></path>
        <clipPath id="cliph17SGiL4Gl">
            <use xlink:href="#h1Z9mk4NQ" opacity="1"></use>
        </clipPath>
    </defs>
    <g>
        <g>
            <use xlink:href="#d1wSyzH2p4" opacity="1" fill="#3d46f2" fill-opacity="1"></use>
        </g>
        <g>
            <g clip-path="url(#cliph17SGiL4Gl)">
                <use xlink:href="#h1Z9mk4NQ" opacity="1" fill-opacity="0" stroke="#3d46f2" stroke-width="32" stroke-opacity="1"></use>
            </g>
        </g>
    </g>
</svg>