<svg version="1.1" xmlns="http://www.w3.org/2000/svg" xmlns:xlink="http://www.w3.org/1999/xlink" viewBox="0 0 338 338" width="512" height="512">
    <defs>
        <path d="M268.09 59.86L247.84 64.92L218.72 73.78L193.41 82.01L163.03 94.67L133.91 109.86L107.33 126.32L137.71 118.72L166.19 112.39L203.53 105.43L240.87 101L276.32 97.2L314.92 97.2C317.02 100.66 318.33 102.81 318.86 103.68C323.38 111.14 326.83 119.2 329.09 127.63C329.8 130.28 328.41 125.09 329.09 127.63C331.46 136.44 333.05 145.44 333.86 154.53C334.12 157.49 333.62 151.8 333.86 154.53C334.74 164.38 334.48 174.3 333.11 184.09C332.71 186.94 331.71 194.05 330.11 205.43C328.98 210.62 328.27 213.87 327.98 215.17C326.46 222.15 324.1 228.93 320.98 235.37C320.17 237.03 318.15 241.18 314.92 247.84C310.11 255.26 307.1 259.9 305.89 261.76C301.8 268.08 297.15 274.03 292.02 279.54C288.5 283.33 290.89 280.76 288.68 283.14C279.21 293.32 268.49 302.26 256.78 309.76C253.98 311.55 260.16 307.6 256.59 309.88C247.41 315.76 237.6 320.59 227.34 324.31C223.09 325.85 229.92 323.37 226.71 324.54C212.99 329.5 198.74 332.87 184.25 334.56C181.02 334.93 188.76 334.03 184.43 334.54C173.58 335.8 162.61 335.69 151.79 334.21C149.66 333.91 144.33 333.18 135.81 332.01C126.45 329.73 120.61 328.3 118.27 327.72C111 325.95 103.98 323.3 97.35 319.83C94.97 318.59 89.01 315.47 79.48 310.49L66.19 298.47L88.97 294.04L114.92 287.71L145.3 277.58L176.95 263.03L206.06 247.84L235.81 231.38L197.84 238.97L154.8 247.84L114.92 254.16L71.89 258.59L38.34 258.59C34.8 255.51 32.59 253.58 31.7 252.81C23.16 245.37 16.39 236.11 11.89 225.7C11.23 224.18 14.81 232.47 13.84 230.21C10.35 222.14 7.48 213.82 5.26 205.31C4.41 202.04 5.85 207.56 5.16 204.92C2.4 194.33 1 183.44 1 172.49C1 170.89 1 166.89 1 160.49C1.16 158.9 1.27 157.9 1.31 157.5C2.79 143.07 5.58 128.81 9.66 114.89C9.85 114.22 10.34 112.54 11.13 109.86C12.91 105.74 14.02 103.16 14.47 102.13C20.23 88.78 27.85 76.32 37.1 65.11C38.02 63.99 40.34 61.18 44.04 56.7C50.14 50.78 53.96 47.09 55.48 45.61C61.34 39.93 67.72 34.82 74.53 30.33C78.05 28.01 84.24 23.93 89.23 20.64C91.16 19.36 93.22 18.28 95.36 17.4C101.81 14.75 102.2 14.59 104.71 13.56C119.87 7.33 135.89 3.48 152.22 2.14C155.01 1.92 144.34 2.79 148.53 2.45C160.28 1.48 172.09 1.54 183.84 2.6C187.27 2.92 166.19 1 166.19 1C189.34 3.1 212.24 7.43 234.56 13.93C234.81 14 216.87 8.78 220.83 9.93C230.78 12.83 240.34 16.91 249.31 22.09C252.31 23.82 246.61 20.53 249.31 22.09C259.27 27.85 268.6 34.62 277.15 42.32C278.81 43.81 282.96 47.55 289.61 53.53L268.09 59.86Z" id="c32nBZ1Vpm"></path>
    </defs>
    <g>
        <g>
            <use xlink:href="#c32nBZ1Vpm" opacity="1" fill="#3d46f2" fill-opacity="1"></use>
        </g>
    </g>
</svg>